<?xml version="1.0" encoding="UTF-8" standalone="no"?>
<!-- Generator: Adobe Illustrator 27.5.0, SVG Export Plug-In . SVG Version: 6.00 Build 0)  -->

<svg
   version="1.1"
   x="0px"
   y="0px"
   viewBox="0 0 3710 3710"
   xml:space="preserve"
   id="svg521"
   sodipodi:docname="22c4eaee483017254bbf1fcceb39cd06.svg"
   width="3710"
   height="3710"
   xmlns:inkscape="http://www.inkscape.org/namespaces/inkscape"
   xmlns:sodipodi="http://sodipodi.sourceforge.net/DTD/sodipodi-0.dtd"
   xmlns:xlink="http://www.w3.org/1999/xlink"
   xmlns="http://www.w3.org/2000/svg"
   xmlns:svg="http://www.w3.org/2000/svg"><defs
   id="defs525" /><sodipodi:namedview
   id="namedview523"
   pagecolor="#ffffff"
   bordercolor="#666666"
   borderopacity="1.0"
   inkscape:pageshadow="2"
   inkscape:pageopacity="0.0"
   inkscape:pagecheckerboard="0" />
<g
   id="Background">
	<g
   id="g6">
		<g
   id="g4">
			<rect
   style="fill:#ffffff"
   width="3710"
   height="3710"
   id="rect2"
   x="0"
   y="0" />
		</g>
	</g>
</g>
<g
   id="Illustration">
	<g
   id="g518">
		<path
   style="fill:#f4f7fa"
   d="M 1919.448,455.631 C 1183.619,434.203 546.237,960.738 449.939,1651.618 344.652,2407.001 924.14,3086.665 1637.177,3195.523 2524.075,3330.925 3384.315,2547.612 3307.074,1697.834 3248.881,1057.6 2667.432,477.413 1919.448,455.631 Z"
   id="path9" />
		<g
   id="g75">
			<g
   id="g41">
				<g
   id="g39">
					<g
   id="g35">
						<path
   style="fill:#97a6b7"
   d="m 2178.777,1228.361 -81.491,0.14 c -5.614,-53.83 -18.555,-105.502 -37.812,-154.047 l 68.901,-39.958 c 18.83,-10.92 25.269,-35.55 14.415,-55.07 l -28.954,-52.068 c -10.92,-19.639 -35.172,-26.851 -54.2,-16.052 l -68.044,38.619 c -31.669,-44.378 -69.465,-84.391 -112.276,-118.806 l 39.137,-67.229 c 11.23,-19.29 4.568,-44.676 -14.914,-56.763 l -52.088,-32.318 c -19.692,-12.217 -44.956,-6.443 -56.395,12.961 l -39.226,66.541 c -50.401,-23.477 -104.865,-40.412 -162.311,-49.497 v -78.909 c 0,-23.279 -19.149,-43.024 -42.845,-44.105 l -63.42,-2.894 c -24,-1.095 -43.517,17.092 -43.517,40.627 v 79.776 c -59.217,4.934 -116.301,18.245 -169.965,38.843 l -42.334,-72.121 c -12.44,-21.194 -40.071,-29.411 -61.756,-18.29 l -57.996,29.745 c -21.932,11.248 -29.462,37.718 -16.777,59.055 l 43.863,73.786 c -48.009,33.94 -90.926,74.572 -127.279,120.644 l -79.339,-44.888 c -22.494,-12.726 -51.359,-6.128 -64.431,14.807 l -34.879,55.863 c -13.159,21.076 -5.347,48.427 17.406,61.018 l 82.096,45.431 c -22.763,52.424 -38.14,108.621 -44.83,167.379 l -98.476,0.169 c -26.503,0.046 -48.06,20.134 -48.06,44.868 v 65.778 c 0,24.734 21.557,44.516 48.06,44.187 l 101.091,-1.258 c 8.535,57.383 25.392,112.012 49.347,162.729 l -89.228,50.641 c -22.753,12.913 -30.565,40.374 -17.406,61.264 l 34.879,55.37 c 13.072,20.751 41.938,26.94 64.431,13.895 l 90.249,-52.338 c 36.059,42.65 77.998,80.123 124.536,111.314 l -52.031,88.262 c -12.685,21.517 -5.155,47.88 16.777,58.818 l 57.996,28.923 c 21.685,10.814 49.316,2.205 61.756,-19.164 l 51.602,-88.642 c 50.954,17.972 104.879,29.378 160.697,33.315 v 98.817 c 0,23.534 19.517,41.445 43.517,40.01 l 63.42,-3.792 c 23.696,-1.417 42.845,-21.433 42.845,-44.711 v -97.743 c 54.175,-9.26 105.697,-25.468 153.661,-47.512 l 47.876,80.536 c 11.439,19.242 36.703,24.659 56.395,12.162 l 52.088,-33.055 c 19.481,-12.363 26.143,-37.844 14.913,-56.975 l -46.476,-79.179 c 41.601,-32.922 78.638,-71.009 110.144,-113.134 l 77.516,42.896 c 19.028,10.53 43.28,2.974 54.2,-16.819 l 28.954,-52.479 c 10.854,-19.673 4.415,-44.211 -14.415,-54.865 l -74.959,-42.409 c 20.3,-47.624 34.508,-98.321 41.676,-151.128 l 83.685,-1.041 c 21.572,-0.268 39.006,-18.492 39.006,-40.705 v -59.073 c 0,-22.212 -17.433,-40.189 -39.005,-40.152 z m -659.739,486.288 c -241.133,8.948 -442.925,-178.196 -442.925,-418.289 0,-240.091 201.792,-429.815 442.925,-423.949 232.939,5.667 416.042,192.94 416.042,418.46 0,225.52 -183.103,415.134 -416.042,423.778 z"
   id="path11" />
						<polygon
   style="fill:#97a6b7"
   points="1171.166,694.685 1249.221,644.649 1191.18,642.648 "
   id="polygon13" />
						<polygon
   style="fill:#97a6b7"
   points="1891.671,718.701 1824.744,668.666 1891.671,669.333 "
   id="polygon15" />
						<polygon
   style="fill:#97a6b7"
   points="2129.838,946.861 2079.803,906.807 2146.517,909.502 "
   id="polygon17" />
						<polygon
   style="fill:#97a6b7"
   points="2229.908,1267.086 2184.543,1229.059 2251.924,1234.396 "
   id="polygon19" />
						<polygon
   style="fill:#97a6b7"
   points="2145.85,1647.353 2072.465,1691.383 2137.844,1700.723 "
   id="polygon21" />
						<polygon
   style="fill:#97a6b7"
   points="1885.667,1899.53 1822.289,1932.219 1880.997,1942.893 "
   id="polygon23" />
						<polygon
   style="fill:#97a6b7"
   points="1521.411,1959.572 1528.75,2036.292 1476.046,2026.952 "
   id="polygon25" />
						<polygon
   style="fill:#97a6b7"
   points="1229.207,1909.536 1243.217,1979.586 1181.84,1966.91 "
   id="polygon27" />
						<polygon
   style="fill:#97a6b7"
   points="937.002,928.849 898.308,880.148 962.353,882.149 "
   id="polygon29" />
						<polygon
   style="fill:#97a6b7"
   points="824.923,1343.139 770.885,1382.5 829.593,1391.173 "
   id="polygon31" />
						<polygon
   style="fill:#97a6b7"
   points="959.017,1705.393 896.974,1734.08 954.347,1743.42 "
   id="polygon33" />
					</g>
					<path
   style="fill:#d8dee8"
   d="m 2244.616,1233.652 -82.167,0.141 c -5.66,-54.268 -18.709,-106.361 -38.125,-155.302 l 69.473,-40.283 c 18.986,-11.009 25.479,-35.84 14.534,-55.518 l -29.194,-52.492 c -11.011,-19.799 -35.463,-27.07 -54.649,-16.182 l -68.608,38.933 c -31.932,-44.74 -70.041,-85.078 -113.206,-119.774 l 39.461,-67.776 c 11.323,-19.447 4.606,-45.04 -15.037,-57.226 l -52.52,-32.581 c -19.855,-12.317 -45.329,-6.495 -56.863,13.066 l -39.551,67.083 C 1767.345,732.073 1712.43,715 1654.508,705.841 V 626.29 c 0,-23.469 -19.308,-43.374 -43.201,-44.464 l -63.945,-2.917 c -24.199,-1.104 -43.878,17.232 -43.878,40.958 v 80.426 c -59.708,4.974 -117.265,18.394 -171.374,39.159 l -42.685,-72.709 c -12.543,-21.366 -40.403,-29.651 -62.268,-18.439 l -58.477,29.987 c -22.114,11.34 -29.706,38.025 -16.916,59.537 l 44.227,74.387 c -48.406,34.217 -91.68,75.18 -128.333,121.627 l -79.997,-45.254 c -22.68,-12.83 -51.785,-6.178 -64.965,14.928 l -35.168,56.318 c -13.268,21.248 -5.391,48.821 17.55,61.515 l 82.777,45.801 c -22.952,52.852 -38.456,109.506 -45.202,168.743 l -99.292,0.171 c -26.723,0.046 -48.458,20.298 -48.458,45.233 v 66.314 c 0,24.935 21.735,44.879 48.458,44.547 l 101.929,-1.268 c 8.605,57.851 25.602,112.925 49.756,164.055 l -89.968,51.054 c -22.941,13.018 -30.818,40.703 -17.55,61.763 l 35.168,55.821 c 13.18,20.92 42.285,27.159 64.965,14.008 l 90.997,-52.765 c 36.358,42.997 78.644,80.776 125.568,112.22 l -52.462,88.981 c -12.79,21.692 -5.198,48.27 16.916,59.297 l 58.477,29.159 c 21.865,10.902 49.724,2.223 62.268,-19.32 l 52.03,-89.364 c 51.377,18.119 105.749,29.617 162.029,33.587 v 99.622 c 0,23.726 19.679,41.783 43.878,40.336 l 63.945,-3.823 c 23.893,-1.428 43.201,-21.607 43.201,-45.075 v -98.539 c 54.624,-9.335 106.573,-25.676 154.934,-47.899 l 48.273,81.192 c 11.534,19.399 37.008,24.86 56.863,12.261 l 52.52,-33.325 c 19.643,-12.464 26.36,-38.152 15.037,-57.439 l -46.862,-79.823 c 41.946,-33.191 79.289,-71.588 111.057,-114.055 l 78.158,43.246 c 19.186,10.616 43.638,2.998 54.649,-16.956 l 29.194,-52.906 c 10.944,-19.833 4.452,-44.571 -14.534,-55.312 l -75.581,-42.755 c 20.469,-48.011 34.794,-99.121 42.021,-152.359 l 84.378,-1.05 c 21.75,-0.271 39.33,-18.643 39.33,-41.036 v -59.554 c 10e-4,-22.399 -17.578,-40.522 -39.329,-40.485 z m -665.207,490.25 c -243.131,9.021 -446.596,-179.648 -446.596,-421.696 0,-242.048 203.465,-433.317 446.596,-427.403 234.87,5.713 419.491,194.512 419.491,421.869 0,227.357 -184.622,418.516 -419.491,427.23 z"
   id="path37" />
				</g>
			</g>
			<g
   id="g73">
				<g
   id="g71">
					<g
   id="g67">
						<path
   style="fill:#97a6b7"
   d="m 3009.852,1234.185 -43.84,-8.152 c 2.416,-29.516 0.673,-58.612 -4.781,-86.663 l 41.089,-14.532 c 11.229,-3.972 17.179,-16.568 13.313,-28.161 l -10.314,-30.925 c -3.89,-11.664 -16.204,-17.992 -27.528,-14.105 l -40.493,13.899 c -12.551,-27.064 -28.837,-52.399 -48.386,-75.229 l 27.835,-32.204 c 7.987,-9.24 6.967,-23.565 -2.289,-32.033 l -24.75,-22.64 c -9.357,-8.558 -23.527,-8.004 -31.638,1.276 l -27.814,31.825 c -24.735,-17.714 -52.316,-32.321 -82.293,-43.007 l 7.967,-42.437 c 2.35,-12.519 -5.955,-25.071 -18.589,-28.045 l -33.814,-7.959 c -12.797,-3.012 -25.129,4.799 -27.505,17.455 l -8.054,42.903 c -32.345,-3.325 -64.388,-1.93 -95.328,3.729 l -15.485,-43.061 c -4.551,-12.654 -18.581,-19.863 -31.365,-16.071 l -34.193,10.141 c -12.93,3.835 -19.653,17.31 -14.985,30.066 l 16.14,44.11 c -29.245,13.406 -56.429,30.924 -80.63,52.031 l -38.136,-32.151 c -10.812,-9.115 -27.002,-8.481 -36.146,1.458 l -24.398,26.521 c -9.205,10.006 -7.765,25.504 3.2,34.572 l 39.564,32.721 c -17.535,25.895 -31.478,54.565 -41.009,85.49 l -52.977,-9.852 c -14.258,-2.651 -27.879,5.975 -30.376,19.277 l -6.641,35.375 c -2.497,13.302 7.099,26.117 21.385,28.616 l 54.494,9.53 c -1.204,31.722 2.346,62.803 10.108,92.497 l -53.099,18.226 c -13.54,4.648 -20.514,18.627 -15.546,31.19 l 13.167,33.299 c 4.935,12.479 19.834,18.722 33.248,13.978 l 53.82,-19.035 c 15.086,26.577 33.857,50.965 55.736,72.438 l -36.893,42.214 c -8.994,10.291 -7.606,25.229 3.084,33.326 l 28.27,21.411 c 10.57,8.005 26.299,6.165 35.147,-4.071 l 36.701,-42.461 c 25.588,14.81 53.438,26.388 83.059,34.141 l -9.977,53.143 c -2.376,12.657 6.312,24.26 19.364,25.911 l 34.49,4.364 c 12.887,1.63 25.206,-7.2 27.556,-19.72 l 9.869,-52.566 c 30.07,0.49 59.415,-3.025 87.435,-10.038 l 17.616,48.146 c 4.209,11.503 17.249,16.967 29.101,12.235 l 31.35,-12.518 c 11.725,-4.682 17.881,-17.713 13.773,-29.135 l -17,-47.274 c 25.697,-13.505 49.46,-30.249 70.657,-49.722 l 37.357,30.896 c 9.17,7.584 22.975,5.969 30.846,-3.573 l 20.87,-25.299 c 7.824,-9.484 6.838,-23.331 -2.213,-30.962 l -36.031,-30.376 c 15.726,-23.562 28.485,-49.392 37.672,-77.068 l 45.11,7.889 c 11.628,2.034 22.844,-6.007 25.087,-17.953 l 5.964,-31.769 c 2.238,-11.945 -5.323,-23.374 -16.928,-25.532 z m -403.903,194.913 c -130.583,-19.534 -220.211,-140.553 -195.97,-269.673 24.241,-129.12 151.919,-210.779 281.007,-183.278 124.701,26.566 204.265,145.768 181.496,267.051 -22.77,121.284 -140.386,204.77 -266.533,185.9 z"
   id="path43" />
						<polygon
   style="fill:#97a6b7"
   points="2521.846,845.444 2568.875,826.416 2537.863,819.48 "
   id="polygon45" />
						<polygon
   style="fill:#97a6b7"
   points="2906.905,931.106 2875.964,897.44 2911.89,904.556 "
   id="polygon47" />
						<polygon
   style="fill:#97a6b7"
   points="3011.954,1077.855 2989.09,1051.262 3024.696,1059.447 "
   id="polygon49" />
						<polygon
   style="fill:#97a6b7"
   points="3033.44,1260.174 3012.882,1235.143 3048.58,1244.816 "
   id="polygon51" />
						<polygon
   style="fill:#97a6b7"
   points="2949.84,1456.192 2905.929,1472.463 2940.146,1484.087 "
   id="polygon53" />
						<polygon
   style="fill:#97a6b7"
   points="2784.455,1565.543 2747.07,1576.724 2777.565,1588.392 "
   id="polygon55" />
						<polygon
   style="fill:#97a6b7"
   points="2582.498,1561.056 2578.698,1603.057 2551.297,1592.713 "
   id="polygon57" />
						<polygon
   style="fill:#97a6b7"
   points="2430.403,1504.645 2430.865,1543.732 2399.137,1530.718 "
   id="polygon59" />
						<polygon
   style="fill:#97a6b7"
   points="2372.271,947.734 2356.379,917.636 2390.62,925.179 "
   id="polygon61" />
						<polygon
   style="fill:#97a6b7"
   points="2270.167,1159.222 2237.132,1174.934 2267.829,1185.525 "
   id="polygon63" />
						<polygon
   style="fill:#97a6b7"
   points="2305.708,1367.579 2269.445,1376.742 2299.357,1387.558 "
   id="polygon65" />
					</g>
					<path
   style="fill:#d8dee8"
   d="m 3044.726,1243.678 -44.203,-8.22 c 2.435,-29.757 0.677,-59.09 -4.823,-87.37 l 41.429,-14.65 c 11.322,-4.004 17.321,-16.702 13.422,-28.39 l -10.401,-31.178 c -3.923,-11.759 -16.339,-18.139 -27.756,-14.22 l -40.828,14.011 c -12.656,-27.285 -29.078,-52.826 -48.789,-75.844 l 28.065,-32.465 c 8.053,-9.315 7.024,-23.757 -2.309,-32.294 l -24.956,-22.825 c -9.434,-8.629 -23.722,-8.07 -31.9,1.286 l -28.043,32.084 c -24.941,-17.859 -52.75,-32.586 -82.975,-43.359 l 8.032,-42.782 c 2.37,-12.621 -6.004,-25.276 -18.744,-28.274 l -34.095,-8.025 c -12.903,-3.037 -25.337,4.837 -27.733,17.597 l -8.12,43.253 c -32.613,-3.353 -64.922,-1.948 -96.118,3.757 l -15.615,-43.412 c -4.589,-12.757 -18.735,-20.025 -31.625,-16.203 l -34.476,10.223 c -13.038,3.866 -19.815,17.45 -15.108,30.31 l 16.274,44.47 c -29.487,13.514 -56.896,31.175 -81.297,52.453 l -38.453,-32.414 c -10.902,-9.19 -27.226,-8.551 -36.445,1.469 l -24.599,26.737 c -9.281,10.087 -7.828,25.711 3.228,34.854 l 39.893,32.989 c -17.68,26.106 -31.738,55.009 -41.346,86.185 l -53.416,-9.933 c -14.376,-2.673 -28.11,6.023 -30.627,19.434 l -6.696,35.663 c -2.518,13.41 7.158,26.33 21.563,28.849 l 54.945,9.609 c -1.213,31.981 2.367,63.315 10.195,93.251 l -53.539,18.373 c -13.652,4.685 -20.683,18.778 -15.674,31.444 l 13.277,33.571 c 4.976,12.581 19.999,18.875 33.524,14.092 l 54.265,-19.189 c 15.212,26.795 34.139,51.381 56.2,73.03 l -37.198,42.557 c -9.068,10.375 -7.668,25.435 3.111,33.597 l 28.504,21.586 c 10.658,8.071 26.517,6.216 35.438,-4.104 l 37.004,-42.806 c 25.801,14.931 53.881,26.605 83.748,34.422 l -10.058,53.576 c -2.396,12.76 6.365,24.458 19.525,26.123 l 34.775,4.4 c 12.994,1.644 25.415,-7.259 27.784,-19.88 l 9.949,-52.994 c 30.319,0.495 59.907,-3.048 88.159,-10.117 l 17.764,48.539 c 4.244,11.597 17.392,17.106 29.343,12.335 l 31.61,-12.619 c 11.822,-4.72 18.028,-17.857 13.886,-29.372 l -17.142,-47.66 c 25.909,-13.615 49.869,-30.494 71.241,-50.126 l 37.667,31.149 c 9.246,7.646 23.166,6.018 31.102,-3.601 l 21.042,-25.505 c 7.888,-9.561 6.894,-23.521 -2.232,-31.214 l -36.33,-30.624 c 15.855,-23.754 28.72,-49.794 37.982,-77.695 l 45.484,7.955 c 11.725,2.05 23.034,-6.055 25.295,-18.098 l 6.013,-32.028 c 2.256,-12.045 -5.368,-23.567 -17.069,-25.743 z m -407.244,196.492 c -131.666,-19.696 -222.039,-141.704 -197.601,-271.877 24.438,-130.172 153.172,-212.493 283.33,-184.765 125.735,26.786 205.961,146.961 183.006,269.233 -22.954,122.272 -141.543,206.436 -268.735,187.409 z"
   id="path69" />
				</g>
			</g>
		</g>
		<g
   id="g186">
			<linearGradient
   id="SVGID_1_"
   gradientUnits="userSpaceOnUse"
   x1="875.78101"
   y1="1951.108"
   x2="1293.8564"
   y2="1907.4285">
				<stop
   offset="0.0036"
   style="stop-color:#26264F"
   id="stop77" />
				<stop
   offset="1"
   style="stop-color:#444B8C"
   id="stop79" />
			</linearGradient>
			<path
   style="fill:url(#SVGID_1_)"
   d="m 703.511,2820.299 c -49.945,2.918 -90.772,-31.995 -90.772,-77.84 V 1090.101 c 0,-45.845 40.827,-81.662 90.772,-79.849 l 2357.525,85.548 c 38.197,1.386 69.144,34.918 69.144,74.752 v 1435.726 c 0,39.835 -30.947,74.051 -69.144,76.284 z"
   id="path82" />
			
				<linearGradient
   id="SVGID_00000000922304236634421800000013297143325313873825_"
   gradientUnits="userSpaceOnUse"
   x1="1766.9891"
   y1="3228.3477"
   x2="1855.567"
   y2="3101.4658">
				<stop
   offset="0"
   style="stop-color:#444B8C"
   id="stop84" />
				<stop
   offset="0.9964"
   style="stop-color:#26264F"
   id="stop86" />
			</linearGradient>
			<path
   style="fill:url(#SVGID_00000000922304236634421800000013297143325313873825_)"
   d="m 2240.522,3003.188 c -37.682,-13.113 -65.845,-46.666 -73.787,-87.906 l -54.844,-284.789 -469.152,17.479 -57.739,296.687 c -8.086,41.551 24.284,83.236 61.564,98.54 l 196.283,80.575 c 36.507,14.987 75.75,20.956 114.753,17.455 l 414.816,-37.232 c 12.126,-1.088 21.853,-11.089 23.264,-23.919 1.412,-12.83 9.907,-27.237 -1.656,-31.26 z"
   id="path89" />
			
				<linearGradient
   id="SVGID_00000033365528375734022660000005895654934010517437_"
   gradientUnits="userSpaceOnUse"
   x1="2035.1288"
   y1="3195.8218"
   x2="1899.5626"
   y2="2459.8923">
				<stop
   offset="0"
   style="stop-color:#444B8C"
   id="stop91" />
				<stop
   offset="0.9964"
   style="stop-color:#26264F"
   id="stop93" />
			</linearGradient>
			<path
   style="fill:url(#SVGID_00000033365528375734022660000005895654934010517437_)"
   d="m 2245.164,2985.868 c -37.643,-12.949 -65.779,-46.08 -73.713,-86.801 l -54.789,-281.209 -457.716,17.278 -57.681,292.957 c -8.078,41.028 13.296,82.171 50.538,97.282 l 196.086,79.563 c 36.471,14.798 75.673,20.692 114.638,17.235 l 414.399,-36.764 c 12.114,-1.074 21.831,-10.95 23.241,-23.619 1.41,-12.669 -5.878,-24.627 -17.43,-28.601 z"
   id="path96" />
			<g
   id="g184">
				<g
   id="g114">
					
						<linearGradient
   id="SVGID_00000047039191839675162220000015764062715489946004_"
   gradientUnits="userSpaceOnUse"
   x1="2369.5508"
   y1="1164.2418"
   x2="3047.9646"
   y2="195.98869">
						<stop
   offset="0"
   style="stop-color:#444B8C"
   id="stop98" />
						<stop
   offset="0.9964"
   style="stop-color:#26264F"
   id="stop100" />
					</linearGradient>
					<path
   style="fill:url(#SVGID_00000047039191839675162220000015764062715489946004_)"
   d="m 722.176,2820.299 c -49.945,2.918 -90.772,-31.995 -90.772,-77.84 V 1090.101 c 0,-45.845 40.827,-81.662 90.772,-79.849 l 2357.525,85.548 c 38.197,1.386 69.144,34.918 69.144,74.752 v 1435.726 c 0,39.835 -30.947,74.051 -69.144,76.284 z"
   id="path103" />
					
						<linearGradient
   id="SVGID_00000106146413068836461270000001672125200703803818_"
   gradientUnits="userSpaceOnUse"
   x1="2074.8945"
   y1="1279.2069"
   x2="1226.288"
   y2="3974.4971">
						<stop
   offset="0"
   style="stop-color:#444B8C"
   id="stop105" />
						<stop
   offset="0.9964"
   style="stop-color:#26264F"
   id="stop107" />
					</linearGradient>
					<path
   style="fill:url(#SVGID_00000106146413068836461270000001672125200703803818_)"
   d="M 3079.701,1129.569 722.177,1048.772 c -26.706,-0.915 -48.411,18.194 -48.411,42.683 v 1285.567 363.144 c 0,24.49 21.704,43.118 48.411,41.611 L 3079.701,2648.79 c 20.47,-1.155 37.027,-19.409 37.027,-40.776 V 2279.901 1169.526 c 10e-4,-21.367 -16.557,-39.255 -37.027,-39.957 z"
   id="path110" />
					<path
   style="fill:#ffffff"
   d="m 722.176,2641.296 c -10.398,0.51 -18.866,-6.828 -18.866,-16.355 V 1092.399 c 0,-9.527 8.467,-17.002 18.866,-16.66 l 2357.525,77.47 c 7.983,0.262 14.474,7.26 14.474,15.596 v 1341.004 c 0,8.336 -6.49,15.439 -14.474,15.831 z"
   id="path112" />
				</g>
				<g
   id="g182">
					
						<linearGradient
   id="SVGID_00000151534378184255380510000001179059170841628593_"
   gradientUnits="userSpaceOnUse"
   x1="2120.8933"
   y1="1444.1941"
   x2="1325.3406"
   y2="3084.6101">
						<stop
   offset="0.0036"
   style="stop-color:#E38DDD"
   id="stop116" />
						<stop
   offset="1"
   style="stop-color:#9571F6"
   id="stop118" />
					</linearGradient>
					<polygon
   style="fill:url(#SVGID_00000151534378184255380510000001179059170841628593_)"
   points="825.589,1304.781 2999.415,1350.409 2999.415,2443.006 825.589,2538.471 "
   id="polygon121" />
					
						<linearGradient
   id="SVGID_00000041291602356090209980000011624126458582156187_"
   gradientUnits="userSpaceOnUse"
   x1="1910.8123"
   y1="1249.1664"
   x2="1863.8684"
   y2="1637.7546">
						<stop
   offset="0"
   style="stop-color:#FF9085"
   id="stop123" />
						<stop
   offset="1"
   style="stop-color:#FB6FBB"
   id="stop125" />
					</linearGradient>
					<polygon
   style="fill:url(#SVGID_00000041291602356090209980000011624126458582156187_)"
   points="825.589,1157.275 2999.415,1219.772 2999.415,1313.084 825.589,1262.637 "
   id="polygon128" />
					<g
   id="g136">
						<path
   style="fill:#ffffff"
   d="m 2834.311,1262.139 c 0,6.662 -5.247,11.931 -11.723,11.767 -6.481,-0.163 -11.739,-5.705 -11.739,-12.377 0,-6.672 5.258,-11.941 11.739,-11.768 6.477,0.174 11.723,5.715 11.723,12.378 z"
   id="path130" />
						<path
   style="fill:#ffffff"
   d="m 2882.422,1263.389 c 0,6.644 -5.217,11.898 -11.657,11.735 -6.445,-0.163 -11.673,-5.688 -11.673,-12.342 0,-6.653 5.228,-11.907 11.673,-11.734 6.44,0.172 11.657,5.697 11.657,12.341 z"
   id="path132" />
						<path
   style="fill:#ffffff"
   d="m 2930.261,1264.632 c 0,6.625 -5.188,11.865 -11.591,11.702 -6.408,-0.161 -11.607,-5.671 -11.607,-12.305 0,-6.635 5.199,-11.874 11.607,-11.703 6.403,0.172 11.591,5.681 11.591,12.306 z"
   id="path134" />
					</g>
					<g
   style="opacity:0.68"
   id="g140">
						<polygon
   style="fill:#ffffff"
   points="873.003,1336.829 2559.448,1369.464 2559.448,2246.11 873.003,2299.061 "
   id="polygon138" />
					</g>
					<g
   id="g150">
						<g
   id="g144">
							<polygon
   style="opacity:0.68;fill:#ffffff"
   points="2588.942,1370.035 2976.195,1377.529 2976.195,1624.315 2588.942,1622.491 "
   id="polygon142" />
						</g>
						<polygon
   style="fill:#ffffff"
   points="2588.942,1649.834 2976.195,1651.044 2976.195,1669.523 2588.942,1668.737 "
   id="polygon146" />
						<polygon
   style="fill:#ffffff"
   points="2588.942,1682.486 2832.105,1682.785 2832.105,1701.422 2588.942,1701.39 "
   id="polygon148" />
					</g>
					<g
   id="g160">
						<g
   id="g154">
							<polygon
   style="opacity:0.68;fill:#ffffff"
   points="2588.942,1740.378 2976.195,1739.556 2976.195,1986.342 2588.942,1992.834 "
   id="polygon152" />
						</g>
						<polygon
   style="fill:#ffffff"
   points="2588.942,2020.177 2976.195,2013.071 2976.195,2031.55 2588.942,2039.081 "
   id="polygon156" />
						<polygon
   style="fill:#ffffff"
   points="2588.942,2052.829 2832.105,2047.907 2832.105,2066.544 2588.942,2071.733 "
   id="polygon158" />
					</g>
					<g
   id="g170">
						<g
   id="g164">
							<polygon
   style="opacity:0.68;fill:#ffffff"
   points="2588.942,2110.722 2976.195,2101.583 2976.195,2348.369 2588.942,2363.178 "
   id="polygon162" />
						</g>
						<polygon
   style="fill:#ffffff"
   points="2588.942,2390.521 2976.195,2375.097 2976.195,2393.577 2588.942,2409.424 "
   id="polygon166" />
						<polygon
   style="fill:#ffffff"
   points="2588.942,2423.173 2832.105,2413.028 2832.105,2431.665 2588.942,2442.076 "
   id="polygon168" />
					</g>
					<g
   id="g180">
						<polygon
   style="fill:#ffffff"
   points="873.003,2344.215 2040.073,2304.791 2040.073,2364.155 873.003,2407.472 "
   id="polygon172" />
						<polygon
   style="fill:#ffffff"
   points="2392.936,2292.871 2559.448,2287.247 2559.448,2344.877 2392.936,2351.058 "
   id="polygon174" />
						<polygon
   style="fill:#ffffff"
   points="2196.958,2299.491 2367.214,2293.74 2367.214,2352.012 2196.958,2358.331 "
   id="polygon176" />
						<polygon
   style="fill:#ffffff"
   points="873.003,2452.29 1406.939,2431.21 1406.939,2461.948 873.003,2483.919 "
   id="polygon178" />
					</g>
				</g>
			</g>
		</g>
		<g
   id="g319">
			
				<linearGradient
   id="SVGID_00000088836345728231847830000006807000279295338630_"
   gradientUnits="userSpaceOnUse"
   x1="1129.0179"
   y1="1701.6265"
   x2="824.19202"
   y2="3163.1157"
   gradientTransform="matrix(-1,0,0,1,3756.1411,0)">
				<stop
   offset="0"
   style="stop-color:#FFC444"
   id="stop188" />
				<stop
   offset="0.9964"
   style="stop-color:#F36F56"
   id="stop190" />
			</linearGradient>
			<path
   style="fill:url(#SVGID_00000088836345728231847830000006807000279295338630_)"
   d="m 2559.081,2120.62 c -26.52,-28.315 46.897,-134.689 86.192,-181.3 34.329,-40.72 69.613,-82.575 112.941,-77.276 38.041,4.653 75.058,44.77 77.276,83.22 5.966,103.435 -238.707,215.609 -276.409,175.356 z"
   id="path193" />
			
				<linearGradient
   id="SVGID_00000088815347373088304740000002219957624141606065_"
   gradientUnits="userSpaceOnUse"
   x1="1336.4348"
   y1="3226.2939"
   x2="1427.725"
   y2="3226.2939"
   gradientTransform="matrix(0.9996,0.0289,-0.0289,0.9996,1550.4657,-31.2392)">
				<stop
   offset="0"
   style="stop-color:#444B8C"
   id="stop195" />
				<stop
   offset="0.9964"
   style="stop-color:#26264F"
   id="stop197" />
			</linearGradient>
			<path
   style="fill:url(#SVGID_00000088815347373088304740000002219957624141606065_)"
   d="m 2877.501,3213.712 c 4.992,4.058 5.91,14.191 6.509,20.815 0.27,2.959 0.403,4.439 0.073,5.484 -2.412,7.623 -17.197,8.425 -40.382,10.794 -36.638,3.743 -47.542,6.627 -50.409,1.175 -2.687,-5.109 3.816,-13.476 4.548,-14.398 3.937,-4.959 8.769,-6.763 18.11,-9.838 17.285,-5.689 28.965,-8.805 32.501,-9.748 22.082,-5.895 25.771,-6.949 29.05,-4.284 z"
   id="path200" />
			<path
   style="fill:#d8dee8"
   d="m 2855.712,3180.24 -3.667,41.751 c 1.041,2.016 13.451,8.063 23.308,2.877 l 9.421,-41.04 z"
   id="path202" />
			
				<linearGradient
   id="SVGID_00000114051693780074677770000010226133493624144033_"
   gradientUnits="userSpaceOnUse"
   x1="1832.306"
   y1="3142.9492"
   x2="1929.2959"
   y2="3142.9492"
   gradientTransform="matrix(0.9642,0.2651,-0.2651,0.9642,1563.2909,-308.9189)">
				<stop
   offset="0"
   style="stop-color:#444B8C"
   id="stop204" />
				<stop
   offset="0.9964"
   style="stop-color:#26264F"
   id="stop206" />
			</linearGradient>
			<path
   style="fill:url(#SVGID_00000114051693780074677770000010226133493624144033_)"
   d="m 2586.934,3208.346 c 5.983,6.607 7.346,18.774 2.144,24.768 -5.114,5.893 -12.804,1.473 -34.614,2.124 -23.362,0.699 -29.462,6.216 -45.337,1.836 -6.414,-1.773 -17.741,-6.073 -17.526,-10.653 0.151,-3.221 5.918,-4.884 25.179,-11.337 27.34,-9.158 27.22,-9.658 33.026,-10.621 14.583,-2.415 29.226,-4.841 37.128,3.883 z"
   id="path209" />
			<path
   style="fill:#d8dee8"
   d="m 2571.966,3170.243 -11.718,38.977 c 0.885,2.091 12.798,9.065 23.02,4.647 l 17.402,-37.83 z"
   id="path211" />
			
				<linearGradient
   id="SVGID_00000018208984197075075550000006422481419406100116_"
   gradientUnits="userSpaceOnUse"
   x1="1227.4792"
   y1="3049.3894"
   x2="968.78912"
   y2="2466.24"
   gradientTransform="matrix(-1,0,0,1,3756.1411,0)">
				<stop
   offset="0"
   style="stop-color:#AA80F9"
   id="stop213" />
				<stop
   offset="0.9964"
   style="stop-color:#6165D7"
   id="stop215" />
			</linearGradient>
			<path
   style="fill:url(#SVGID_00000018208984197075075550000006422481419406100116_)"
   d="m 2676.076,2316.6 c -1.678,130.99 -10.617,278.273 -32.065,438.288 -21.197,158.15 -50.903,301.045 -83.308,426.702 14.95,4.022 29.9,8.044 44.849,12.067 37.928,-35.366 85.774,-91.038 108.861,-169.711 14.329,-48.829 9.553,-73.921 18.643,-133.98 14.472,-95.628 43.785,-145.728 74.083,-222.842 27.226,-69.294 59.408,-170.991 76.663,-306.927 -69.243,-14.533 -138.485,-29.066 -207.726,-43.597 z"
   id="path218" />
			
				<linearGradient
   id="SVGID_00000097480477788009916920000008976828168693733523_"
   gradientUnits="userSpaceOnUse"
   x1="646.06818"
   y1="3071.0688"
   x2="387.38269"
   y2="2487.9299"
   gradientTransform="matrix(-0.9925,-0.1225,-0.1225,0.9925,3673.136,108.1241)">
				<stop
   offset="0"
   style="stop-color:#AA80F9"
   id="stop220" />
				<stop
   offset="0.9964"
   style="stop-color:#6165D7"
   id="stop222" />
			</linearGradient>
			<path
   style="fill:url(#SVGID_00000097480477788009916920000008976828168693733523_)"
   d="m 2811.023,2304.101 c 9.15,166.598 16.676,336.296 22.378,509.001 4.281,129.597 7.423,257.551 9.511,383.82 15.271,1.885 30.542,3.772 45.814,5.656 14.756,-27.473 34.354,-69.475 47.78,-123.31 16.307,-65.384 12.531,-104.212 19.682,-171.977 8.024,-76.004 19.678,-92.562 40.324,-188.44 41.904,-194.58 62.856,-291.872 16.112,-352.391 -15.172,-19.648 -62.741,-68.933 -201.601,-62.359 z"
   id="path225" />
			
				<linearGradient
   id="SVGID_00000054259935536731648480000004930814104404062095_"
   gradientUnits="userSpaceOnUse"
   x1="1023.4713"
   y1="1679.6121"
   x2="718.64587"
   y2="3141.0984"
   gradientTransform="matrix(-1,0,0,1,3756.1411,0)">
				<stop
   offset="0"
   style="stop-color:#FFC444"
   id="stop227" />
				<stop
   offset="0.9964"
   style="stop-color:#F36F56"
   id="stop229" />
			</linearGradient>
			<path
   style="fill:url(#SVGID_00000054259935536731648480000004930814104404062095_)"
   d="m 3033.585,1885.395 c -35.763,-10.057 -88.176,-21.818 -152.366,-25.446 -91.551,-5.175 -137.328,-7.762 -169.766,14.04 -74.92,50.355 -16.917,166.573 -47.585,454.668 -4.38,41.142 -5.362,82.577 -8.533,123.829 -5.252,68.303 -6.448,72.011 -1.695,78.933 29.802,43.402 140.992,-22.063 303.964,3.815 91.186,14.479 132.542,47.837 157.523,23.777 29.134,-28.058 4.143,-103.526 -17.368,-168.493 -24.693,-74.572 -39.947,-75.532 -53.963,-131.693 -14.65,-58.701 -5.789,-88.925 -3.508,-181.492 1.091,-44.294 0.859,-110.21 -6.703,-191.938 z"
   id="path232" />
			<g
   style="opacity:0.3"
   id="g241">
				
					<linearGradient
   id="SVGID_00000060750682582025812190000009905558036139877293_"
   gradientUnits="userSpaceOnUse"
   x1="761.32373"
   y1="2929.5283"
   x2="877.01178"
   y2="2380.0117"
   gradientTransform="matrix(-1,0,0,1,3756.1411,0)">
					<stop
   offset="0"
   style="stop-color:#FFC444"
   id="stop234" />
					<stop
   offset="0.9964"
   style="stop-color:#F36F56"
   id="stop236" />
				</linearGradient>
				<path
   style="fill:url(#SVGID_00000060750682582025812190000009905558036139877293_)"
   d="m 2811.969,2426.255 c 42.595,-3.333 70.228,20.748 106.997,1.981 50.419,-25.735 66.619,-105.806 63.406,-162.477 -4.882,-86.104 -54.049,-108.801 -45.573,-164.458 4.583,-30.099 26.073,-70.061 103.23,-110.888 1.029,34.361 0.833,63.65 0.26,86.919 -2.281,92.567 -11.143,122.792 3.508,181.492 14.016,56.161 29.27,57.121 53.963,131.693 21.512,64.967 46.502,140.435 17.368,168.493 -24.981,24.06 -66.338,-9.298 -157.523,-23.777 -140.425,-22.298 -242.348,23.164 -286.944,8.42 53.887,-89.048 102.763,-114.382 141.308,-117.398 z"
   id="path239" />
			</g>
			
				<linearGradient
   id="SVGID_00000036961398060970829380000000190678399347271349_"
   gradientUnits="userSpaceOnUse"
   x1="814.6543"
   y1="1636.059"
   x2="509.82889"
   y2="3097.5461"
   gradientTransform="matrix(-1,0,0,1,3756.1411,0)">
				<stop
   offset="0"
   style="stop-color:#FFC444"
   id="stop243" />
				<stop
   offset="0.9964"
   style="stop-color:#F36F56"
   id="stop245" />
			</linearGradient>
			<path
   style="fill:url(#SVGID_00000036961398060970829380000000190678399347271349_)"
   d="m 2975.483,1891.306 c 30.421,-24.996 91.591,3.299 107.942,10.862 91.184,42.178 173.054,155.836 152.769,275.95 -3.042,18.015 -17.149,102.272 -88.497,143.099 -64.377,36.837 -151.305,27.363 -220.953,-24.811 -9.517,-8.447 -19.037,-16.891 -28.556,-25.337 -9.363,-10.121 -18.73,-20.243 -28.093,-30.366 14.72,-12.244 39.73,-29.907 74.856,-41.242 46.31,-14.944 80.026,11.87 101.513,-8.515 14.829,-14.069 14.862,-38.918 11.201,-53.979 -7.381,-30.354 -34.138,-38.89 -56.471,-60.434 -52.469,-50.616 -62.136,-155.298 -25.711,-185.227 z"
   id="path248" />
			<g
   id="g264">
				
					<linearGradient
   id="SVGID_00000151531828319822355980000000770433230634094740_"
   gradientUnits="userSpaceOnUse"
   x1="1074.5337"
   y1="2452.0022"
   x2="1025.2074"
   y2="2312.2439"
   gradientTransform="matrix(-1,0,0,1,3756.1411,0)">
					<stop
   offset="0"
   style="stop-color:#311944"
   id="stop250" />
					<stop
   offset="1"
   style="stop-color:#893976"
   id="stop252" />
				</linearGradient>
				<polygon
   style="fill:url(#SVGID_00000151531828319822355980000000770433230634094740_)"
   points="2837.63,2329.667 2537.257,2310.008 2538.299,2283.424 2946.06,2277.337 "
   id="polygon255" />
				
					<linearGradient
   id="SVGID_00000171702138681017589520000014681940655161373879_"
   gradientUnits="userSpaceOnUse"
   x1="859.04858"
   y1="2249.5139"
   x2="877.13501"
   y2="2374.4746"
   gradientTransform="matrix(-1,0,0,1,3756.1411,0)">
					<stop
   offset="0"
   style="stop-color:#311944"
   id="stop257" />
					<stop
   offset="1"
   style="stop-color:#893976"
   id="stop259" />
				</linearGradient>
				<path
   style="fill:url(#SVGID_00000171702138681017589520000014681940655161373879_)"
   d="m 2960.45,2288.173 v 0 c 0,7.631 -4.775,14.447 -11.947,17.055 l -130.293,51.079 -0.594,-35.412 128.443,-43.56 c 7.209,-2.071 14.391,3.339 14.391,10.837 z"
   id="path262" />
			</g>
			<path
   style="fill:#ffffff"
   d="m 2897.663,2264.046 c 2.502,-0.559 -12.192,-29.838 -23.728,-26.459 -11.533,3.38 -67.953,36.077 -73.081,49.54 -5.129,13.463 -5.129,13.463 -5.129,13.463 0,0 24.611,1.924 39.873,-3.204 15.264,-5.13 41.715,-28.803 62.065,-33.34 z"
   id="path266" />
			<g
   id="g291">
				<g
   id="g282">
					
						<linearGradient
   id="SVGID_00000054237289256354129960000016305596409476144061_"
   gradientUnits="userSpaceOnUse"
   x1="1217.4213"
   y1="2260.4587"
   x2="1121.2527"
   y2="2123.8994"
   gradientTransform="matrix(-1,0,0,1,3756.1411,0)">
						<stop
   offset="0"
   style="stop-color:#444B8C"
   id="stop268" />
						<stop
   offset="0.9964"
   style="stop-color:#26264F"
   id="stop270" />
					</linearGradient>
					<path
   style="fill:url(#SVGID_00000054237289256354129960000016305596409476144061_)"
   d="m 2806.8,2072.432 28.742,261.699 c 0.992,9.03 -11.65,22.483 -20.724,22.053 l -421.646,-25.885 c -6.929,-0.329 -12.698,-5.428 -13.871,-12.264 l -52.923,-252.756 c -1.579,-9.198 14.956,-18.698 24.285,-18.437 l 441.858,12.424 c 7.381,0.21 13.474,5.827 14.279,13.166 z"
   id="path273" />
					
						<linearGradient
   id="SVGID_00000130632536792681895570000010458020373002549171_"
   gradientUnits="userSpaceOnUse"
   x1="1032.9526"
   y1="2486.4622"
   x2="1243.413"
   y2="2058.9648"
   gradientTransform="matrix(-1,0,0,1,3756.1411,0)">
						<stop
   offset="0"
   style="stop-color:#311944"
   id="stop275" />
						<stop
   offset="1"
   style="stop-color:#893976"
   id="stop277" />
					</linearGradient>
					<path
   style="fill:url(#SVGID_00000130632536792681895570000010458020373002549171_)"
   d="m 2797.164,2080.062 28.743,261.701 c 0.991,9.03 -6.319,16.809 -15.393,16.381 l -426.979,-20.214 c -6.927,-0.328 -12.696,-5.428 -13.87,-12.263 l -43.622,-253.912 c -1.58,-9.2 5.655,-17.544 14.984,-17.281 l 441.859,12.424 c 7.378,0.206 13.474,5.827 14.278,13.164 z"
   id="path280" />
				</g>
				
					<linearGradient
   id="SVGID_00000047051599503561639650000014431412815635571622_"
   gradientUnits="userSpaceOnUse"
   x1="930.14459"
   y1="2212.0803"
   x2="1392.4965"
   y2="2212.0803"
   gradientTransform="matrix(-1,0,0,1,3756.1411,0)">
					<stop
   offset="0"
   style="stop-color:#311944"
   id="stop284" />
					<stop
   offset="1"
   style="stop-color:#893976"
   id="stop286" />
				</linearGradient>
				<path
   style="opacity:0.3;fill:url(#SVGID_00000047051599503561639650000014431412815635571622_)"
   d="m 2546.442,2276.607 c 37.282,-15.801 24.123,-45.935 68.149,-83.483 58.08,-49.534 117.279,-28.052 138.003,-66.446 6.454,-11.958 9.536,-30.564 -1.705,-60.68 l 31.997,0.899 c 7.378,0.206 13.474,5.826 14.278,13.163 l 28.743,261.701 c 0.99,9.029 -6.321,16.809 -15.393,16.381 l -426.979,-20.214 c -6.927,-0.328 -12.696,-5.427 -13.87,-12.263 l -6.02,-35.038 c 12.955,-7.209 28.436,-13.765 46.499,-17.429 62.642,-12.704 93.375,21.601 136.298,3.409 z"
   id="path289" />
			</g>
			<path
   style="fill:#d8dee8"
   d="m 2356.635,2301.327 c -0.694,-2.108 0.777,-4.28 2.995,-4.393 9.024,-0.46 29.954,-0.647 41.508,6.428 15.01,9.194 34.418,25.971 18.073,34.436 l -15.261,7.906 c -0.701,0.363 -1.464,0.476 -2.233,0.308 -5.423,-1.193 -28.248,-6.256 -30.744,-7.513 -2.272,-1.144 -10.975,-26.969 -14.338,-37.172 z"
   id="path293" />
			<g
   id="g317">
				<path
   style="fill:#ffffff"
   d="m 2874.383,1759.924 c -0.228,27.142 2.8,48.667 5.665,63.408 3.281,16.89 5.646,21.253 8.664,24.794 4.542,5.33 11.426,9.8 50.319,19.445 21.165,5.247 23.887,5.104 24.355,7.204 2.28,10.246 -55.433,45.166 -115.057,36.749 -36.491,-5.15 -69.693,-25.969 -67.655,-36.902 2.051,-11.002 38.502,-5.099 49.365,-25.003 7.558,-13.847 -0.914,-33.505 -10.927,-49.785 9.7,-18.172 45.573,-21.738 55.271,-39.91 z"
   id="path295" />
				<g
   id="g315">
					
						<linearGradient
   id="SVGID_00000037675245492056043830000001105345345527921334_"
   gradientUnits="userSpaceOnUse"
   x1="1197.4398"
   y1="1730.5468"
   x2="1128.4037"
   y2="1555.2076"
   gradientTransform="matrix(1,0.0037,-0.0037,1,1717.1163,162.9159)">
						<stop
   offset="0"
   style="stop-color:#311944"
   id="stop297" />
						<stop
   offset="1"
   style="stop-color:#6B3976"
   id="stop299" />
					</linearGradient>
					<path
   style="fill:url(#SVGID_00000037675245492056043830000001105345345527921334_)"
   d="m 2806.655,1770.655 c -8.612,-11.44 -9.143,-31.412 0.78,-44.036 8.539,-10.863 21.978,-12.412 30.022,-13.343 23.313,-2.692 52.727,7.04 62.959,28.497 6.063,12.715 -7.052,39.135 -9.105,43.885 -2.326,5.37 -6.542,7.213 -10.442,11.274 -5.405,5.631 -13.868,14.586 -27.681,29.562 -1.073,-4.419 -2.706,-9.89 -5.298,-15.819 -0.998,-2.283 -5.006,-11.197 -11.071,-18.588 -12.149,-14.817 -22,-10.59 -30.164,-21.432 z"
   id="path302" />
					<path
   style="fill:#ffffff"
   d="m 2872.891,1813.9 c 0,0 -15.326,25.143 -45.839,23.158 -27.32,-1.779 -31.322,-63.045 -13.872,-76.047 5.822,-4.337 17.481,-6.138 26.961,-3.482 5.599,1.57 7.496,3.896 16.695,6.281 8.486,2.202 10.882,1.262 13.444,3.416 3.203,2.698 5.55,9.307 0.2,27.218 5.213,-5.277 11.469,-7.303 15.903,-5.21 0.706,0.335 2.582,1.61 3.638,3.545 3.819,6.997 -2.572,15.935 -17.13,21.121 z"
   id="path304" />
					
						<linearGradient
   id="SVGID_00000008829273038369975460000001265393022515557292_"
   gradientUnits="userSpaceOnUse"
   x1="1176.3499"
   y1="1738.9426"
   x2="1107.2438"
   y2="1563.4258"
   gradientTransform="matrix(1,0.0037,-0.0037,1,1717.1163,162.9159)">
						<stop
   offset="0"
   style="stop-color:#311944"
   id="stop306" />
						<stop
   offset="1"
   style="stop-color:#6B3976"
   id="stop308" />
					</linearGradient>
					<path
   style="fill:url(#SVGID_00000008829273038369975460000001265393022515557292_)"
   d="m 2871.515,1763.563 c -1.317,0.983 2.71,5.898 3.01,12.855 0.585,13.505 -13.085,29.715 -27.03,31.09 -8.245,0.812 -10.51,-4.157 -24.14,-5.597 -8.438,-0.891 -15.462,0.182 -19.881,1.148 -4.283,14.812 -0.253,29.579 9.647,36.43 10.658,7.377 24.274,2.902 29.966,1.03 3.808,-1.252 16.01,-5.237 22.388,-16.428 6.645,-11.661 0.124,-18.69 7.747,-26.577 3.845,-3.979 8.896,-5.701 13.813,-13.403 1.335,-2.093 2.226,-3.944 2.771,-5.189 -7.049,-7.47 -16.383,-16.782 -18.291,-15.359 z"
   id="path311" />
					<path
   style="fill:#ffffff"
   d="m 2813.391,1808.549 c 0,0 5.901,3.083 16.097,2.509 0.496,-0.029 1.043,0.117 1.106,0.374 0.234,0.967 -6.307,5.304 -12.334,3.61 -4.279,-1.204 -7.609,-5.255 -7.033,-6.286 0.244,-0.434 1.212,-0.377 2.164,-0.207 z"
   id="path313" />
				</g>
			</g>
		</g>
		<g
   id="g372">
			<g
   id="g337">
				<g
   id="g335">
					
						<linearGradient
   id="SVGID_00000019643964838893762490000010509554623031560871_"
   gradientUnits="userSpaceOnUse"
   x1="2756.7712"
   y1="714.51318"
   x2="1919.6312"
   y2="1821.2421">
						<stop
   offset="0"
   style="stop-color:#311944"
   id="stop321" />
						<stop
   offset="1"
   style="stop-color:#893976"
   id="stop323" />
					</linearGradient>
					<path
   style="fill:url(#SVGID_00000019643964838893762490000010509554623031560871_)"
   d="m 2924.025,1075.636 -4.231,441.807 c -0.675,69.263 -57.145,124.455 -126.443,124.455 h -937.447 c -74.558,0 -134.191,-57.68 -132.876,-130.035 l 0.817,-44.725 0.177,-8.911 7.5,-407.809 c 1.244,-68.552 57.464,-123.216 127.188,-126.272 3.2,-0.142 6.469,-0.146 9.738,-0.075 l 1.244,0.052 930.945,23.889 c 68.943,1.742 124.026,58.859 123.388,127.624 z"
   id="path326" />
					
						<linearGradient
   id="SVGID_00000015330248677932987420000004476398071673789582_"
   gradientUnits="userSpaceOnUse"
   x1="2532.8516"
   y1="546.1825"
   x2="1696.1475"
   y2="1652.3351">
						<stop
   offset="0"
   style="stop-color:#311944"
   id="stop328" />
						<stop
   offset="1"
   style="stop-color:#893976"
   id="stop330" />
					</linearGradient>
					<path
   style="fill:url(#SVGID_00000015330248677932987420000004476398071673789582_)"
   d="m 1946.098,1641.899 h -465.509 c -9.844,0 -13.504,-11.197 -5.26,-16.492 l 234.158,-149.064 14.357,-8.947 70.756,-45.075 10.198,-7.468 z"
   id="path333" />
				</g>
			</g>
			<g
   id="g355">
				<g
   id="g353">
					
						<linearGradient
   id="SVGID_00000016061659657733556520000008092577327874533803_"
   gradientUnits="userSpaceOnUse"
   x1="2742.783"
   y1="714.69843"
   x2="1905.6458"
   y2="1821.4235">
						<stop
   offset="0.0036"
   style="stop-color:#E38DDD"
   id="stop339" />
						<stop
   offset="1"
   style="stop-color:#9571F6"
   id="stop341" />
					</linearGradient>
					<path
   style="fill:url(#SVGID_00000016061659657733556520000008092577327874533803_)"
   d="m 2909.773,1075.636 -4.229,442.836 c -0.675,68.659 -56.114,123.46 -124.559,124.42 -0.606,0.036 -1.244,-0.993 -1.85,-0.993 h -937.447 c -74.558,0 -134.226,-57.68 -132.876,-130.035 l 0.675,-35.521 0.142,-8.947 7.677,-416.977 c 1.314,-71.751 62.758,-128.262 136.891,-126.379 l 4.512,0.139 13.896,0.371 913.817,23.463 c 68.908,1.741 124.026,58.858 123.351,127.623 z"
   id="path344" />
					
						<linearGradient
   id="SVGID_00000119821454427067141200000015403396328699097000_"
   gradientUnits="userSpaceOnUse"
   x1="2516.7932"
   y1="548.58643"
   x2="1681.7598"
   y2="1652.5303">
						<stop
   offset="0.0036"
   style="stop-color:#E38DDD"
   id="stop346" />
						<stop
   offset="1"
   style="stop-color:#9571F6"
   id="stop348" />
					</linearGradient>
					<path
   style="fill:url(#SVGID_00000119821454427067141200000015403396328699097000_)"
   d="m 1931.846,1641.899 h -465.473 c -9.879,0 -13.54,-11.197 -5.26,-16.492 l 248.516,-158.268 14.392,-8.911 66.562,-42.41 4.017,5.54 z"
   id="path351" />
				</g>
			</g>
			<g
   id="g363">
				<path
   style="fill:#ffffff"
   d="m 2196.145,1238.896 v -45.098 l -90.962,53.591 -67.651,40.051 v 26.475 l 158.612,82.306 v -44.92 l -111.253,-52.631 39.493,-21.252 z"
   id="path357" />
				<path
   style="fill:#ffffff"
   d="m 2322.476,1157.906 -64.535,195.777 -26.69,81.026 46.199,0.463 24.201,-73.172 67.735,-204.733 z"
   id="path359" />
				<path
   style="fill:#ffffff"
   d="m 2404.104,1191.631 v 45.914 l 118.163,60.45 -118.163,53.946 v 45.702 l 55.028,-26.689 117.683,-57.145 v -27.755 z"
   id="path361" />
			</g>
			
				<linearGradient
   id="SVGID_00000060029438089277772070000012248502871063528376_"
   gradientUnits="userSpaceOnUse"
   x1="2329.0674"
   y1="1219.3717"
   x2="1810.4559"
   y2="1904.9944">
				<stop
   offset="0.0036"
   style="stop-color:#E38DDD"
   id="stop365" />
				<stop
   offset="1"
   style="stop-color:#9571F6"
   id="stop367" />
			</linearGradient>
			<path
   style="opacity:0.3;fill:url(#SVGID_00000060029438089277772070000012248502871063528376_)"
   d="m 2777.723,1643.92 v -2.021 h -1311.35 c -9.879,0 -13.54,-11.197 -5.26,-16.492 l 248.516,-158.268 7.677,-416.849 c 1.314,-71.751 62.758,-128.198 136.891,-126.314 l 4.512,0.171 c 3.2,-0.142 6.469,-0.146 9.738,-0.075 l 1.244,0.052 c 0.994,0.142 1.954,0.292 2.913,0.435 69.618,11.123 150.431,47.198 175.379,151.181 16.632,69.263 31.132,126.588 56.897,171.649 6.077,10.697 12.829,20.72 20.434,30.03 28.926,35.68 69.795,61.196 132.626,76.265 13.503,3.27 28.074,6.042 43.711,8.316 29.709,4.336 63.47,6.93 101.923,7.747 8.99,0.178 18.23,0.285 27.755,0.285 9.417,0 16.778,0.32 25.448,0.924 196.205,13.609 208.156,176.763 320.946,272.964 z"
   id="path370" />
		</g>
		<g
   id="g440">
			<g
   id="g407">
				<g
   id="g405">
					<defs
   id="defs375">
						<path
   id="SVGID_00000050642689358048959060000017453132686224984507_"
   d="m 1403.985,3090.456 c -48.454,-51.203 -111.519,-133.434 -135.589,-245.836 -31.567,-147.414 31.672,-217.203 39.619,-463.132 5.025,-155.499 6.965,-264.069 -67.862,-326.647 -58.638,-49.04 -157.399,-63.964 -220.162,-25.467 -52.186,32.009 -85.595,104.699 -97.596,157.288 -9.781,42.861 -5.858,74.636 -32.166,95.957 -26.886,21.79 -53.632,6.96 -78.503,22.805 -50.438,32.132 -29.326,149.746 -25.914,168.755 37.957,211.45 221.682,363.454 302.622,428.793 66.924,54.024 171.087,126.905 315.551,187.484 z" />
					</defs>
					
						<linearGradient
   id="SVGID_00000130611027103038972490000004620675888375281576_"
   gradientUnits="userSpaceOnUse"
   x1="778.53369"
   y1="2549.009"
   x2="1403.9854"
   y2="2549.009">
						<stop
   offset="0"
   style="stop-color:#FFC444"
   id="stop377" />
						<stop
   offset="0.9964"
   style="stop-color:#F36F56"
   id="stop379" />
					</linearGradient>
					
						<use
   xlink:href="#SVGID_00000050642689358048959060000017453132686224984507_"
   style="overflow:visible;fill:url(#SVGID_00000130611027103038972490000004620675888375281576_)"
   id="use382"
   x="0"
   y="0"
   width="100%"
   height="100%" />
					<clipPath
   id="SVGID_00000118364675535030181470000005496576814762638471_">
						<use
   xlink:href="#SVGID_00000050642689358048959060000017453132686224984507_"
   style="overflow:visible"
   id="use384"
   x="0"
   y="0"
   width="100%"
   height="100%" />
					</clipPath>
					<g
   style="opacity:0.5"
   clip-path="url(#SVGID_00000118364675535030181470000005496576814762638471_)"
   id="g403">
						<g
   id="g389">
							<path
   style="fill:#ffffff"
   d="m 1460.205,3132.757 2.023,-4.5 c -153.118,-68.834 -342.698,-189.499 -376.316,-373.434 -12.364,-67.64 -2.466,-136.398 11.231,-231.563 10.935,-75.974 25.538,-128.838 38.42,-175.477 16.85,-60.99 30.157,-109.165 27.114,-180.406 -3.086,-72.289 -22.533,-145.121 -57.794,-216.474 l -4.423,2.186 c 34.955,70.733 54.23,142.9 57.287,214.498 3.01,70.465 -10.207,118.309 -26.94,178.882 -12.924,46.782 -27.571,99.805 -38.55,176.088 -13.246,92.031 -23.709,164.722 -11.202,233.155 15.997,87.515 68.932,169.222 157.34,242.849 59.7,49.718 134.328,94.868 221.81,134.196 z"
   id="path387" />
						</g>
						<g
   id="g393">
							<path
   style="fill:#ffffff"
   d="m 1102.391,2469.906 2.616,-0.96 c 0.522,-0.192 52.753,-19.713 106.701,-69.015 49.791,-45.501 111.363,-126.427 121.939,-253.554 l -4.919,-0.408 c -10.442,125.531 -71.209,205.411 -120.349,250.318 -46.42,42.421 -91.382,62.439 -102.478,66.996 -33.563,-140.559 -102.561,-231.56 -154.711,-283.254 -56.933,-56.438 -106.746,-79.571 -107.243,-79.797 l -2.051,4.488 c 0.489,0.224 49.655,23.087 105.988,78.98 51.971,51.564 120.852,142.604 153.872,283.493 z"
   id="path391" />
						</g>
						<g
   id="g397">
							<path
   style="fill:#ffffff"
   d="m 1078.975,2676.013 1.098,-1.418 c 0.545,-0.702 55.124,-70.893 123.613,-130.546 68.078,-59.297 220.079,-72.279 221.606,-72.401 l -0.401,-4.918 c -1.544,0.125 -155.158,13.25 -224.448,73.598 -63.447,55.263 -115.008,119.506 -123.156,129.824 -155.114,-58.07 -301.843,-437.958 -303.312,-441.802 l -4.611,1.763 c 0.37,0.968 37.671,98.065 93.886,200.865 75.661,138.355 147.673,220.593 214.038,244.43 z"
   id="path395" />
						</g>
						<g
   id="g401">
							<path
   style="fill:#ffffff"
   d="m 1215.582,2978.511 -2.196,-4.401 c -36.202,-72.529 -25.956,-145.834 30.457,-217.878 42.262,-53.973 96.023,-86.889 96.561,-87.215 l -2.559,-4.22 c -0.545,0.33 -54.98,33.639 -97.807,88.286 -55.79,71.191 -67.236,146.721 -33.245,218.75 -18.046,-3.712 -84.787,-18.739 -167.385,-53.17 -89.044,-37.12 -215.261,-105.032 -310.885,-217.767 l -185.788,-219.037 -3.763,3.192 185.788,219.037 c 96.29,113.522 223.288,181.85 312.87,219.181 97.037,40.436 172.36,54.239 173.11,54.373 z"
   id="path399" />
						</g>
					</g>
				</g>
			</g>
			<g
   id="g438">
				<g
   id="g436">
					<defs
   id="defs410">
						<path
   id="SVGID_00000140718670233803451780000016802922552401768125_"
   d="m 1249.328,3131.556 c -110.318,14.779 -252.962,17.867 -395.527,-25.978 -36.383,-11.189 -261.14,-80.312 -248.341,-180.304 4.509,-35.222 34.686,-44.529 41.537,-91.516 8.118,-55.676 -29.055,-78.247 -60.974,-142.292 -19.046,-38.216 -74.784,-150.055 -12.904,-223.765 36.978,-44.047 114.283,-72.486 176.696,-66.039 91.546,9.456 133.111,92.113 201.021,233.185 60.2,125.056 53.071,158.537 97.992,247.832 33.337,66.272 91.648,155.938 200.5,248.877 z" />
					</defs>
					
						<linearGradient
   id="SVGID_00000129925581686661990360000015017535970738938037_"
   gradientUnits="userSpaceOnUse"
   x1="1023.6138"
   y1="2488.2097"
   x2="839.83722"
   y2="2981.5056">
						<stop
   offset="0"
   style="stop-color:#AA80F9"
   id="stop412" />
						<stop
   offset="0.9964"
   style="stop-color:#6165D7"
   id="stop414" />
					</linearGradient>
					
						<use
   xlink:href="#SVGID_00000140718670233803451780000016802922552401768125_"
   style="overflow:visible;fill:url(#SVGID_00000129925581686661990360000015017535970738938037_)"
   id="use417"
   x="0"
   y="0"
   width="100%"
   height="100%" />
					<clipPath
   id="SVGID_00000159442734470128893300000016836962237641708206_">
						<use
   xlink:href="#SVGID_00000140718670233803451780000016802922552401768125_"
   style="overflow:visible"
   id="use419"
   x="0"
   y="0"
   width="100%"
   height="100%" />
					</clipPath>
					<g
   style="opacity:0.5"
   clip-path="url(#SVGID_00000159442734470128893300000016836962237641708206_)"
   id="g434">
						<g
   id="g424">
							<path
   style="fill:#ffffff"
   d="m 1448.555,3161.896 c 91.965,0 185.221,-19.039 278.148,-56.871 l -1.86,-4.572 c -116.766,47.538 -234.027,65.213 -348.494,52.527 C 966.731,3107.605 765.098,2674.623 713.057,2543 683.53,2468.323 676.474,2382.373 692.085,2287.539 l -4.868,-0.802 c -15.76,95.728 -8.61,182.558 21.252,258.078 42.829,108.325 120.862,265.073 249.392,396.641 123.662,126.59 264.28,199.407 417.944,216.43 24.141,2.675 48.4,4.01 72.75,4.01 z"
   id="path422" />
						</g>
						<g
   id="g428">
							<path
   style="fill:#ffffff"
   d="m 816.101,2756.058 1.166,-1.887 c 0.26,-0.422 26.353,-42.992 43.904,-105.142 16.213,-57.428 28.279,-143.854 -6.335,-229.456 l -4.574,1.851 c 34.067,84.256 22.175,169.472 6.198,226.123 -15.271,54.151 -37.074,93.246 -42.255,102.123 -253.255,-122.495 -273.063,-296.791 -273.083,-347.4 -0.002,-1.569 -0.005,-2.132 -0.063,-2.547 l -4.892,0.632 c 0.024,0.289 0.019,0.935 0.019,1.917 0.019,51.473 20.119,229.037 277.914,352.826 z"
   id="path426" />
						</g>
						<g
   id="g432">
							<path
   style="fill:#ffffff"
   d="m 805.484,2962.3 c 43.819,0 94.656,-6.181 152.671,-22.385 l 1.272,-0.355 0.41,-1.254 c 0.468,-1.428 46.352,-144.954 9.092,-327.423 l -37.556,-183.939 -4.834,0.988 37.556,183.939 c 35.154,172.166 -4.154,309.198 -8.56,323.651 -139.88,38.781 -237.324,18.753 -294.503,-4.929 -62.112,-25.726 -91.415,-61.188 -91.704,-61.543 l -3.831,3.11 c 1.202,1.483 30.194,36.638 93.342,62.867 34.388,14.282 83.137,27.273 146.645,27.273 z"
   id="path430" />
						</g>
					</g>
				</g>
			</g>
		</g>
		<g
   id="g516">
			<g
   id="g478">
				<g
   id="g476">
					<g
   id="g467">
						
							<linearGradient
   id="SVGID_00000088837893648492631870000000893325680691844495_"
   gradientUnits="userSpaceOnUse"
   x1="1157.0115"
   y1="2736.0427"
   x2="1734.421"
   y2="2736.0427"
   gradientTransform="matrix(0.9993,0.0372,-0.0372,0.9993,-147.3405,-31.9133)">
							<stop
   offset="0"
   style="stop-color:#444B8C"
   id="stop442" />
							<stop
   offset="0.9964"
   style="stop-color:#26264F"
   id="stop444" />
						</linearGradient>
						<path
   style="fill:url(#SVGID_00000088837893648492631870000000893325680691844495_)"
   d="m 1392.731,2304.465 76.434,857.681 c 1.157,12.986 -7.861,24.533 -20.063,25.658 l -413.537,42.593 c -24.742,1.317 -37.834,-12.102 -38.945,-25.591 l -73.359,-890.489 c -1.083,-13.146 11.204,-25.538 35.648,-26.438 l 409.744,-6.022 c 12.124,-0.232 22.949,9.94 24.078,22.608 z"
   id="path447" />
						
							<linearGradient
   id="SVGID_00000038415298922566766170000001265052886849897913_"
   gradientUnits="userSpaceOnUse"
   x1="1407.2805"
   y1="2874.4377"
   x2="1487.0486"
   y2="2653.0129"
   gradientTransform="matrix(0.9993,0.0372,-0.0372,0.9993,-147.3405,-31.9133)">
							<stop
   offset="0"
   style="stop-color:#444B8C"
   id="stop449" />
							<stop
   offset="0.9964"
   style="stop-color:#26264F"
   id="stop451" />
						</linearGradient>
						<path
   style="fill:url(#SVGID_00000038415298922566766170000001265052886849897913_)"
   d="m 1411.516,2302.337 77.126,862.814 c 1.168,13.065 -7.898,24.682 -20.169,25.815 l -429.097,39.6 c -13.156,1.214 -24.858,-8.899 -25.979,-22.47 l -74.011,-895.865 c -1.092,-13.225 8.718,-24.246 21.777,-24.496 l 426.132,-8.141 c 12.192,-0.233 23.081,10 24.221,22.743 z"
   id="path454" />
						<path
   style="fill:#ffffff"
   d="m 1401.98,2349.947 71.329,799.729 c 1.087,12.193 -7.389,23.023 -18.856,24.064 l -403.428,36.633 c -12.243,1.112 -23.133,-8.32 -24.18,-20.957 l -68.62,-828.492 c -1.022,-12.338 8.108,-22.659 20.268,-22.938 l 400.848,-9.222 c 11.396,-0.263 21.576,9.268 22.639,21.183 z"
   id="path456" />
						<g
   id="g465">
							
								<linearGradient
   id="SVGID_00000056385502527461867350000013346732139849904554_"
   gradientUnits="userSpaceOnUse"
   x1="1068.2845"
   y1="2580.3987"
   x2="1368.5864"
   y2="2144.7009">
								<stop
   offset="0"
   style="stop-color:#FF9085"
   id="stop458" />
								<stop
   offset="1"
   style="stop-color:#FB6FBB"
   id="stop460" />
							</linearGradient>
							<path
   style="fill:url(#SVGID_00000056385502527461867350000013346732139849904554_)"
   d="m 1401.98,2349.947 c -1.063,-11.915 -11.243,-21.446 -22.642,-21.183 l -400.847,9.222 c -12.159,0.28 -21.29,10.6 -20.268,22.938 l 9.82,118.576 444.533,-10.74 z"
   id="path463" />
						</g>
					</g>
					
						<linearGradient
   id="SVGID_00000005980358448122414310000010380931691002827910_"
   gradientUnits="userSpaceOnUse"
   x1="1425.7678"
   y1="2257.7222"
   x2="935.59131"
   y2="3585.2832"
   gradientTransform="matrix(0.9993,0.0372,-0.0372,0.9993,-147.3405,-31.9133)">
						<stop
   offset="0"
   style="stop-color:#FFC444"
   id="stop469" />
						<stop
   offset="0.9964"
   style="stop-color:#F36F56"
   id="stop471" />
					</linearGradient>
					<path
   style="fill:url(#SVGID_00000005980358448122414310000010380931691002827910_)"
   d="m 1187.953,2309.631 c 0.388,4.498 -2.84,8.222 -7.213,8.317 -4.376,0.095 -8.238,-3.479 -8.625,-7.982 -0.387,-4.503 2.848,-8.226 7.223,-8.316 4.372,-0.088 8.228,3.484 8.615,7.981 z"
   id="path474" />
				</g>
			</g>
			<g
   id="g510">
				<g
   id="g508">
					
						<linearGradient
   id="SVGID_00000050623936459951646920000015305492129410560186_"
   gradientUnits="userSpaceOnUse"
   x1="429.06671"
   y1="2611.3103"
   x2="658.20581"
   y2="3107.9844"
   gradientTransform="matrix(1,0,0.0972,0.995,399.2297,-20.4976)">
						<stop
   offset="0.0036"
   style="stop-color:#E38DDD"
   id="stop480" />
						<stop
   offset="1"
   style="stop-color:#9571F6"
   id="stop482" />
					</linearGradient>
					<polygon
   style="fill:url(#SVGID_00000050623936459951646920000015305492129410560186_)"
   points="1015.133,2523.579 1216.823,2518.433 1243.399,2797.15 1042.824,2807.054 "
   id="polygon485" />
					
						<linearGradient
   id="SVGID_00000132086802488855569130000012739291743928334216_"
   gradientUnits="userSpaceOnUse"
   x1="545.82123"
   y1="2442.1121"
   x2="809.57758"
   y2="3013.8213"
   gradientTransform="matrix(1,0,0.0972,0.995,399.2297,-20.4976)">
						<stop
   offset="0.0036"
   style="stop-color:#E38DDD"
   id="stop487" />
						<stop
   offset="1"
   style="stop-color:#9571F6"
   id="stop489" />
					</linearGradient>
					<polygon
   style="fill:url(#SVGID_00000132086802488855569130000012739291743928334216_)"
   points="1247.92,2517.639 1366.39,2514.617 1392.153,2789.804 1274.325,2795.623 "
   id="polygon492" />
					
						<linearGradient
   id="SVGID_00000085966365879284078130000003203489217024659332_"
   gradientUnits="userSpaceOnUse"
   x1="442.2897"
   y1="2747.9917"
   x2="624.84747"
   y2="3143.6978"
   gradientTransform="matrix(1,0,0.0972,0.995,399.2297,-20.4976)">
						<stop
   offset="0.0036"
   style="stop-color:#E38DDD"
   id="stop494" />
						<stop
   offset="1"
   style="stop-color:#9571F6"
   id="stop496" />
					</linearGradient>
					<polygon
   style="fill:url(#SVGID_00000085966365879284078130000003203489217024659332_)"
   points="1046.427,2843.935 1395.505,2825.611 1412.916,3011.592 1065.138,3035.482 "
   id="polygon499" />
					
						<linearGradient
   id="SVGID_00000174602492168920002070000002233305928592842391_"
   gradientUnits="userSpaceOnUse"
   x1="475.58578"
   y1="2990.8057"
   x2="597.31763"
   y2="3254.6672"
   gradientTransform="matrix(1,0,0.0972,0.995,399.2297,-20.4976)">
						<stop
   offset="0.0036"
   style="stop-color:#E38DDD"
   id="stop501" />
						<stop
   offset="1"
   style="stop-color:#9571F6"
   id="stop503" />
					</linearGradient>
					<polygon
   style="fill:url(#SVGID_00000174602492168920002070000002233305928592842391_)"
   points="1068.403,3068.903 1415.954,3044.044 1423.754,3127.366 1076.785,3154.708 "
   id="polygon506" />
				</g>
			</g>
			<g
   style="opacity:0.48"
   id="g514">
				<path
   style="fill:#ffffff"
   d="m 1308.414,2894.643 c -41.599,-145.339 -162.884,-130.806 -199.156,-262.137 -29.79,-107.861 38.899,-164.721 -2.767,-255.024 -19.597,-42.47 -53.927,-71.188 -89.528,-90.813 l -55.801,1.066 c -13.06,0.25 -22.87,11.271 -21.778,24.496 l 74.01,895.866 c 1.122,13.571 12.824,23.684 25.98,22.47 l 351.82,-32.469 c -22.496,-28.538 -43.841,-63.465 -58.656,-105.416 -31.356,-88.8 -1.12,-117.667 -24.124,-198.039 z"
   id="path512" />
			</g>
		</g>
	</g>
</g>
</svg>
