<?xml version="1.0" encoding="UTF-8" standalone="no"?>
<svg
   enable-background="new 0 0 823 823"
   viewBox="0 0 768.41278 693.62506"
   id="software-engineer"
   version="1.1"
   sodipodi:docname="8650164a89ddcc4ebed8b2147ef71866.svg"
   width="768.41278"
   height="693.62506"
   xmlns:inkscape="http://www.inkscape.org/namespaces/inkscape"
   xmlns:sodipodi="http://sodipodi.sourceforge.net/DTD/sodipodi-0.dtd"
   xmlns="http://www.w3.org/2000/svg"
   xmlns:svg="http://www.w3.org/2000/svg">
  <defs
     id="defs113" />
  <sodipodi:namedview
     id="namedview111"
     pagecolor="#ffffff"
     bordercolor="#666666"
     borderopacity="1.0"
     inkscape:pageshadow="2"
     inkscape:pageopacity="0.0"
     inkscape:pagecheckerboard="0" />
  <path
     fill="#cce9ff"
     d="m 529.4128,35.488287 c -87.1,-57.4 -209.5,-45.8 -286.5,39.4 -42.1,46.600003 -59.2,110.700003 -102.9,156.300003 -49.199997,51.4 -107.999997,101.3 -130.2999966,171.3 -23.7000004,74.4 -2.9,159.7 50.0999996,216.6 64.499997,69.2 159.299997,48.4 248.899997,47.3 366.9,-4.6 639.6,-249.5 292.6,-551.4 -29,-25.400003 -43.1,-60.600003 -71.9,-79.500003 z"
     opacity="0.63"
     id="path2" />
  <path
     fill="#0b4870"
     d="M 693.8128,75.188287 H 74.812803 c -12.4,0 -22.5,10 -22.5,22.4 V 523.88829 H 716.3128 V 97.588287 c 0,-12.4 -10.1,-22.4 -22.5,-22.4 z"
     id="path4" />
  <path
     fill="#0e538c"
     d="M 693.0128,84.588287 H 75.612803 c -7.7,0 -13.9,6.2 -13.9,13.9 V 517.58829 H 706.9128 V 98.488287 c 0,-7.7 -6.2,-13.9 -13.9,-13.9 z"
     id="path6" />
  <path
     fill="#0b4870"
     d="M 84.912803,115.58829 H 683.7128 v 387.1 H 84.912803 Z"
     id="path8" />
  <path
     fill="#f6f6f6"
     d="m 387.7128,101.98829 c 0,1.9 -1.5,3.4 -3.4,3.4 -1.9,0 -3.4,-1.5 -3.4,-3.4 0,-1.9 1.5,-3.400003 3.4,-3.400003 1.9,0.1 3.4,1.600003 3.4,3.400003 z"
     id="path10" />
  <path
     fill="#ffbe55"
     d="m 160.0128,136.98829 h 60 v 10.6 h -60 z"
     id="path12" />
  <path
     fill="#cce9ff"
     d="m 105.8128,136.98829 h 24.7 v 10.6 h -24.7 z m 0,19.4 h 24.7 v 10.6 h -24.7 z m 0,23 h 24.7 v 10.6 h -24.7 z m 0,22.9 h 24.7 v 10.6 h -24.7 z m 0,23 h 24.7 v 10.6 h -24.7 z m 0,22.9 h 24.7 v 10.6 h -24.7 z m 126.6,-111.2 h 201.3 v 10.6 h -201.3 z"
     id="path14" />
  <path
     fill="#ffbe55"
     d="m 181.2128,156.38829 h 60 v 10.6 h -60 z"
     id="path16" />
  <path
     fill="#cce9ff"
     d="m 253.6128,156.38829 h 201.3 v 10.6 h -201.3 z"
     id="path18" />
  <path
     fill="#ffbe55"
     d="m 216.6128,179.38829 h 60 v 10.6 h -60 z"
     id="path20" />
  <path
     fill="#cce9ff"
     d="m 289.0128,179.38829 h 201.3 v 10.6 h -201.3 z"
     id="path22" />
  <path
     fill="#ffbe55"
     d="m 251.9128,202.28829 h 60 v 10.6 h -60 z"
     id="path24" />
  <path
     fill="#cce9ff"
     d="m 324.3128,202.28829 h 201.3 v 10.6 h -201.3 z"
     id="path26" />
  <path
     fill="#ffbe55"
     d="m 216.6128,225.28829 h 60 v 10.6 h -60 z"
     id="path28" />
  <path
     fill="#cce9ff"
     d="m 289.0128,225.28829 h 307.3 v 10.6 h -307.3 z"
     id="path30" />
  <path
     fill="#ffbe55"
     d="m 181.2128,248.18829 h 60 v 10.6 h -60 z"
     id="path32" />
  <path
     fill="#cce9ff"
     d="m 253.6128,248.18829 h 130.7 v 10.6 h -130.7 z"
     id="path34" />
  <path
     fill="#ffbe55"
     d="m 160.0128,278.28829 h 60 v 10.6 h -60 z"
     opacity="0.4"
     id="path36" />
  <path
     fill="#cce9ff"
     d="m 105.8128,278.28829 h 24.7 v 10.6 h -24.7 z m 0,19.4 h 24.7 v 10.6 h -24.7 z m 0,23 h 24.7 v 10.6 h -24.7 z m 0,22.9 h 24.7 v 10.6 h -24.7 z m 0,23 h 24.7 v 10.6 h -24.7 z m 0,22.9 h 24.7 v 10.6 h -24.7 z m 126.6,-111.2 h 201.3 v 10.6 h -201.3 z"
     opacity="0.4"
     id="path38" />
  <path
     fill="#ffbe55"
     d="m 181.2128,297.68829 h 60 v 10.6 h -60 z"
     opacity="0.4"
     id="path40" />
  <path
     fill="#cce9ff"
     d="m 253.6128,297.68829 h 201.3 v 10.6 h -201.3 z"
     opacity="0.4"
     id="path42" />
  <path
     fill="#ffbe55"
     d="m 216.6128,320.68829 h 60 v 10.6 h -60 z"
     opacity="0.4"
     id="path44" />
  <path
     fill="#cce9ff"
     d="m 289.0128,320.68829 h 201.3 v 10.6 h -201.3 z"
     opacity="0.4"
     id="path46" />
  <path
     fill="#ffbe55"
     d="m 160.0128,419.48829 h 60 v 10.6 h -60 z"
     opacity="0.4"
     id="path48" />
  <path
     fill="#cce9ff"
     d="m 105.8128,419.48829 h 24.7 v 10.6 h -24.7 z m 0,19.5 h 24.7 v 10.6 h -24.7 z m 0,22.9 h 24.7 v 10.6 h -24.7 z m 126.6,-42.4 h 201.3 v 10.6 h -201.3 z"
     opacity="0.4"
     id="path50" />
  <path
     fill="#ffbe55"
     d="m 181.2128,438.98829 h 60 v 10.6 h -60 z"
     opacity="0.4"
     id="path52" />
  <path
     fill="#cce9ff"
     d="m 253.6128,438.98829 h 201.3 v 10.6 h -201.3 z"
     opacity="0.4"
     id="path54" />
  <path
     fill="#ffbe55"
     d="m 216.6128,461.88829 h 60 v 10.6 h -60 z"
     opacity="0.4"
     id="path56" />
  <path
     fill="#cce9ff"
     d="m 289.0128,461.88829 h 201.3 v 10.6 h -201.3 z"
     opacity="0.4"
     id="path58" />
  <path
     fill="#ffbe55"
     d="m 251.9128,343.58829 h 60 v 10.6 h -60 z"
     opacity="0.4"
     id="path60" />
  <path
     fill="#cce9ff"
     d="m 324.3128,343.58829 h 307.3 v 10.6 h -307.3 z"
     opacity="0.4"
     id="path62" />
  <path
     fill="#ffbe55"
     d="m 216.6128,366.58829 h 60 v 10.6 h -60 z"
     opacity="0.4"
     id="path64" />
  <path
     fill="#cce9ff"
     d="m 289.0128,366.58829 h 201.3 v 10.6 h -201.3 z"
     opacity="0.4"
     id="path66" />
  <path
     fill="#ffbe55"
     d="m 181.2128,389.48829 h 60 v 10.6 h -60 z"
     opacity="0.4"
     id="path68" />
  <path
     fill="#cce9ff"
     d="m 253.6128,389.48829 h 201.3 v 10.6 h -201.3 z"
     opacity="0.4"
     id="path70" />
  <path
     fill="#d3d3d3"
     d="M 760.4128,516.28829 H 8.2128034 c -4.3,0 -7.89999997,3.5 -7.89999997,7.9 v 10.2 c 0,4.3 3.49999997,7.9 7.89999997,7.9 H 760.5128 c 4.3,0 7.9,-3.5 7.9,-7.9 v -10.2 c -0.1,-4.4 -3.6,-7.9 -8,-7.9 z"
     id="path72" />
  <path
     fill="#f7f7f7"
     d="m 448.8128,527.58829 h -129 c -1.7,0 -3.1,1.4 -3.1,3.1 0,1.7 1.4,3.1 3.1,3.1 h 129.1 c 1.7,0 3.1,-1.4 3.1,-3.1 -0.1,-1.7 -1.5,-3.1 -3.2,-3.1 z"
     id="path74" />
  <path
     fill="#0b4870"
     d="m 554.9128,628.58829 -0.1,16.1 c 0,0 2,10.3 3.7,21.3 1.6,11 2.9,22.7 1.2,25.4 -3.3,5.4 -9.8,0 -10.9,-5.4 -1.1,-5.4 -2.7,-39.1 -2.7,-39.1 l -1.1,-21.7 z m 16.4,-2.2 -2.5,14.5 c 0,0 -4.9,39.6 -2.2,45.6 2.7,6 11.4,3.3 10.9,-4.9 -0.5,-8.1 1.6,-36.9 1.6,-36.9 l 4.9,-17.4 z"
     id="path76" />
  <path
     fill="#0b4870"
     d="m 564.6128,449.88829 -1.2,17.8 46,22.2 c 8.3,4.5 12.3,14.2 9.6,23.2 l -31.8,118.3 -15.8,-5 13.9,-108.8 c 1,-6.7 -3.6,-12.9 -10.3,-14 l -16.4,-2.6 -17.4,-17.8 20.2,18.1 c 4.9,4.4 7.3,10.9 6.4,17.4 l -12.9,109.9 -14.3,3.6 -6.4,-108.1 c -0.5,-6.9 -5.1,-12.7 -11.6,-14.8 l -28.3,-9 c -4.5,-2.7 -7.3,-7.6 -7.5,-12.9 l 1.2,-38.1 z"
     id="path78" />
  <path
     fill="#ffbe55"
     d="m 485.0128,489.78829 7.6,-147.8 c 0,0 31.4,-1.9 40.8,-1.9 5.1,0 13.8,2.4 20.7,4.6 6.5,2.1 11.8,1.9 15,7.9 l 51.5,98.8 -31.7,3 -10.6,-12 5.4,-8.1 -19.3,-45.4 3.8,82.5 z"
     id="path80" />
  <path
     fill="#0f0f0f"
     d="m 565.1128,370.88829 34.2,61.7 -10.6,12.5 c 0,0 -4.3,0.9 -8.4,-0.5 l -1.9,-2.2 5.4,-8.1 -19.3,-45.4 z"
     opacity="0.08"
     id="path82" />
  <path
     fill="#ffffff"
     d="m 534.7128,384.78829 c -10.4,0 -29.4,-27.1 -29.4,-37.5 0,-2.1 0.4,-4.1 1,-6 9.7,-0.5 21.8,-1.1 27.1,-1.1 2.3,0 5.3,0.5 8.6,1.2 0.6,1.9 1,3.8 1,5.9 -0.1,10.4 2.1,37.5 -8.3,37.5 z"
     id="path84" />
  <path
     fill="#0f0f0f"
     d="m 488.8128,367.58829 -3.8,123.1 50.8,-12.2 z"
     opacity="0.08"
     id="path86" />
  <path
     fill="#fcd2b1"
     d="m 536.5128,324.98829 c -0.9,1.8 -7.1,26 -7.1,26 0,0 -2.2,4 -7.5,3.5 -5.3,-0.4 -7.5,-7.9 -7.5,-7.9 l 9.3,-30.4 z"
     id="path88" />
  <path
     fill="#ffbcc6"
     d="m 503.9128,310.08829 c 0,16.7 17.7,35.2 34.4,35.2 16.7,0 26,-18.5 26,-35.2 0,-16.7 -13.5,-30.2 -30.2,-30.2 -16.7,-0.1 -30.2,13.5 -30.2,30.2 z"
     id="path90" />
  <circle
     cx="477.55103"
     cy="394.48602"
     r="34"
     fill="#ffe3ca"
     transform="rotate(-9.259)"
     id="circle92" />
  <path
     fill="#ffe3ca"
     d="m 528.4128,475.58829 c 1.3,-0.4 12.5,-5.9 20.4,-5.9 7.9,0 17.6,8.4 17.6,8.4 0,0 1.3,4.4 -4,3.5 -5.3,-0.9 0.7,3.3 0.7,3.3 0,0 -0.3,0.2 -6.5,1.1 -6.2,0.9 -30.2,-0.4 -30.2,-0.4 z"
     id="path94" />
  <path
     fill="#ffbe55"
     d="m 492.6128,342.08829 -4.3,97.2 40,36.2 -1.9,10.2 -56.3,-30.1 c -5.4,-2.9 -8.5,-8.9 -7.7,-15 l 10.3,-74.4 c 0.8,-9.3 6.5,-17.5 14.8,-21.6 z m 31.7,151.9 h 101.8 v -7.5 h -101.8 c -2.1,0 -3.7,1.7 -3.7,3.7 -0.1,2.1 1.6,3.8 3.7,3.8 z"
     id="path96" />
  <path
     fill="#ffbe55"
     d="m 552.2128,493.98829 h 98.2 c 4.3,0 8.1,-2.9 9.3,-7.1 l 17.3,-65.3 c 1.6,-6.1 -3,-12 -9.3,-12 h -85.7 c -4.3,0 -8.1,2.9 -9.3,7.1 z"
     id="path98" />
  <path
     fill="#ffffff"
     d="m 552.2128,493.98829 h 98.2 c 4.3,0 8.1,-2.9 9.3,-7.1 l 17.3,-65.3 c 1.6,-6.1 -3,-12 -9.3,-12 h -85.7 c -4.3,0 -8.1,2.9 -9.3,7.1 z"
     opacity="0.22"
     id="path100" />
  <path
     fill="#ffffff"
     d="m 610.0128,457.58829 c -1.1,4.3 1.6,7.7 6,7.7 4.4,0 8.8,-3.5 9.9,-7.7 1.1,-4.3 -1.6,-7.7 -6,-7.7 -4.4,-0.1 -8.8,3.4 -9.9,7.7 z"
     id="path102" />
  <path
     fill="#2a94f4"
     d="m 534.8128,278.48829 c 17.5,0 31.8,13.2 33.8,30.1 -5.9,4.4 -13.6,6.3 -20.9,5.1 -8.6,-1.5 -16.3,-7.4 -19.9,-15.3 0.3,3.8 0.5,7.6 -0.1,11.3 -0.6,3.7 -2.2,7.4 -5.2,9.8 -0.2,-2.6 -0.5,-5.4 -1.8,-7.7 -1.4,-2.3 -4.3,-3.9 -6.7,-2.9 -1.8,0.7 -2.9,2.5 -3.2,4.4 -0.3,1.9 0.2,3.8 0.9,5.6 1.1,2.8 2.7,5.4 4.7,7.5 -4,0.6 -8.3,1.1 -12.3,0.7 -2.1,-4.5 -3.4,-9.4 -3.4,-14.7 0,-18.7 15.3,-33.9 34.1,-33.9 z"
     id="path104" />
  <path
     fill="#ffe3ca"
     d="m 505.5128,318.08829 c 0,5.7 4.6,10.3 10.3,10.3 5.7,0 10.3,-4.6 10.3,-10.3 0,-5.7 -4.6,-10.3 -10.3,-10.3 -5.6,0 -10.3,4.6 -10.3,10.3 z m 65.8,308.3 -1.8,10.9 10.8,3.4 3,-10.7 z m -16.5,14.3 -9,1.7 -0.5,-11.4 9.6,-2.4 z"
     id="path106" />
  <circle
     cx="515.81281"
     cy="278.98828"
     r="15.2"
     fill="#2a94f4"
     id="circle108" />
</svg>
