<svg xmlns="http://www.w3.org/2000/svg" viewBox="0 0 400 300" width="406" height="306" class="illustration styles_illustrationTablet__1DWOa">
  <g id="_003" data-name="003">
    <path d="M356.5,231.33H43.5a.46.46,0,0,1-.46-.46.47.47,0,0,1,.46-.46h313a.47.47,0,0,1,.46.46A.46.46,0,0,1,356.5,231.33Z" fill="#d1d3d4"></path>
    <rect x="66.93" y="44.49" width="272.15" height="166.33" rx="5.37" fill="#fff"></rect>
    <path d="M333.7,211.32H72.3a5.88,5.88,0,0,1-5.87-5.88V49.86A5.87,5.87,0,0,1,72.3,44H333.7a5.87,5.87,0,0,1,5.87,5.87V205.44A5.88,5.88,0,0,1,333.7,211.32ZM72.3,45a4.87,4.87,0,0,0-4.87,4.87V205.44a4.88,4.88,0,0,0,4.87,4.88H333.7a4.88,4.88,0,0,0,4.87-4.88V49.86A4.87,4.87,0,0,0,333.7,45Z" fill="#231f20"></path>
    <path d="M187.75,163.67H82.63a.46.46,0,0,1-.46-.46.47.47,0,0,1,.46-.46H187.75a.47.47,0,0,1,.46.46A.46.46,0,0,1,187.75,163.67Z" fill="#d1d3d4"></path>
    <path d="M139.32,202.34a.46.46,0,0,1-.46-.46V163a.46.46,0,0,1,.46-.46.47.47,0,0,1,.46.46v38.86A.47.47,0,0,1,139.32,202.34Z" fill="#d1d3d4"></path>
    <path d="M320.64,137.77H199.76a.46.46,0,0,1-.46-.46.45.45,0,0,1,.46-.46H320.64a.45.45,0,0,1,.46.46A.46.46,0,0,1,320.64,137.77Z" fill="#d1d3d4"></path>
    <path d="M320.64,149.59H199.76a.45.45,0,0,1-.46-.46.46.46,0,0,1,.46-.46H320.64a.46.46,0,0,1,.46.46A.45.45,0,0,1,320.64,149.59Z" fill="#d1d3d4"></path>
    <path d="M320.64,161.42H199.76a.46.46,0,0,1,0-.92H320.64a.46.46,0,1,1,0,.92Z" fill="#d1d3d4"></path>
    <path d="M320.64,173.25H199.76a.47.47,0,0,1,0-.93H320.64a.47.47,0,0,1,0,.93Z" fill="#d1d3d4"></path>
    <path d="M320.64,185.07H199.76a.46.46,0,0,1,0-.92H320.64a.46.46,0,1,1,0,.92Z" fill="#d1d3d4"></path>
    <path d="M326.84,121.81H193.56a.46.46,0,0,1-.46-.46V103.77a.47.47,0,0,1,.46-.47H326.84a.47.47,0,0,1,.46.47v17.58A.46.46,0,0,1,326.84,121.81ZM193.56,104.69a.46.46,0,0,0-.46.46v17.58a.46.46,0,0,0,.46.46H326.84a.46.46,0,0,0,.46-.46V104.69a.46.46,0,0,0-.46-.46Z" fill="#231f20"></path>
    <path d="M317.15,99.86H202.25a5.88,5.88,0,0,1-5.88-5.87V51.88A5.88,5.88,0,0,1,202.25,46H317.15a5.87,5.87,0,0,1,5.87,5.88V94A5.87,5.87,0,0,1,317.15,99.86ZM202.25,47a4.87,4.87,0,0,0-4.87,4.88V94a4.87,4.87,0,0,0,4.87,4.87H317.15a4.88,4.88,0,0,0,4.87-4.87V51.88a4.88,4.88,0,0,0-4.87-4.88Z" fill="#231f20"></path>
    <path d="M263.86,107.7H255a.46.46,0,0,1-.46-.46.46.46,0,0,1,.46-.46h8.86a.46.46,0,0,1,.46.46A.46.46,0,0,1,263.86,107.7Z" fill="#d1d3d4"></path>
    <path d="M263.86,119.53H255a.45.45,0,0,1-.46-.46.46.46,0,0,1,.46-.46h8.86a.46.46,0,0,1,.46.46A.46.46,0,0,1,263.86,119.53Z" fill="#d1d3d4"></path>
    <path d="M263.86,131.36H255a.46.46,0,0,1,0-.92h8.86a.46.46,0,0,1,0,.92Z" fill="#d1d3d4"></path>
    <path d="M263.86,143.18H255a.46.46,0,0,1-.46-.46.47.47,0,0,1,.46-.47h8.86a.47.47,0,0,1,.46.47A.46.46,0,0,1,263.86,143.18Z" fill="#d1d3d4"></path>
    <path d="M263.86,155.01H255a.46.46,0,0,1-.46-.46.46.46,0,0,1,.46-.46h8.86a.46.46,0,0,1,.46.46A.46.46,0,0,1,263.86,155.01Z" fill="#d1d3d4"></path>
    <path d="M263.86,166.84H255a.46.46,0,0,1-.46-.46.46.46,0,0,1,.46-.46h8.86a.46.46,0,0,1,.46.46A.46.46,0,0,1,263.86,166.84Z" fill="#d1d3d4"></path>
    <path d="M263.86,178.66H255a.47.47,0,0,1-.46-.47.46.46,0,0,1,.46-.46h8.86a.46.46,0,0,1,.46.46A.47.47,0,0,1,263.86,178.66Z" fill="#d1d3d4"></path>
    <path d="M263.86,190.49H255a.46.46,0,0,1-.46-.46.47.47,0,0,1,.46-.46h8.86a.47.47,0,0,1,.46.46A.46.46,0,0,1,263.86,190.49Z" fill="#d1d3d4"></path>
    <path d="M295.84,107.7H287a.46.46,0,0,1-.46-.46.46.46,0,0,1,.46-.46h8.86a.46.46,0,0,1,.46.46A.46.46,0,0,1,295.84,107.7Z" fill="#d1d3d4"></path>
    <path d="M295.84,119.53H287a.45.45,0,0,1-.46-.46.46.46,0,0,1,.46-.46h8.86a.46.46,0,0,1,.46.46A.46.46,0,0,1,295.84,119.53Z" fill="#d1d3d4"></path>
    <path d="M295.84,131.36H287a.46.46,0,0,1,0-.92h8.86a.46.46,0,0,1,0,.92Z" fill="#d1d3d4"></path>
    <path d="M295.84,143.18H287a.46.46,0,0,1-.46-.46.47.47,0,0,1,.46-.47h8.86a.47.47,0,0,1,.46.47A.46.46,0,0,1,295.84,143.18Z" fill="#d1d3d4"></path>
    <path d="M295.84,155.01H287a.46.46,0,0,1-.46-.46.46.46,0,0,1,.46-.46h8.86a.46.46,0,0,1,.46.46A.46.46,0,0,1,295.84,155.01Z" fill="#d1d3d4"></path>
    <path d="M295.84,166.84H287a.46.46,0,0,1-.46-.46.46.46,0,0,1,.46-.46h8.86a.46.46,0,0,1,.46.46A.46.46,0,0,1,295.84,166.84Z" fill="#d1d3d4"></path>
    <path d="M295.84,178.66H287a.47.47,0,0,1-.46-.47.46.46,0,0,1,.46-.46h8.86a.46.46,0,0,1,.46.46A.47.47,0,0,1,295.84,178.66Z" fill="#d1d3d4"></path>
    <path d="M295.84,190.49H287a.46.46,0,0,1-.46-.46.47.47,0,0,1,.46-.46h8.86a.47.47,0,0,1,.46.46A.46.46,0,0,1,295.84,190.49Z" fill="#d1d3d4"></path>
    <path d="M317.15,99.86H202.25a5.88,5.88,0,0,1-5.88-5.87V51.88A5.88,5.88,0,0,1,202.25,46H317.15a5.87,5.87,0,0,1,5.87,5.88V94A5.87,5.87,0,0,1,317.15,99.86ZM202.25,47a4.87,4.87,0,0,0-4.87,4.88V94a4.87,4.87,0,0,0,4.87,4.87H317.15a4.88,4.88,0,0,0,4.87-4.87V51.88a4.88,4.88,0,0,0-4.87-4.88Z" fill="#231f20"></path>
    <path d="M263.86,95.65H255a.46.46,0,0,1-.46-.46.46.46,0,0,1,.46-.46h8.86a.46.46,0,0,1,.46.46A.46.46,0,0,1,263.86,95.65Z" fill="#d1d3d4"></path>
    <path d="M263.86,95.65H255a.46.46,0,0,1-.46-.46.46.46,0,0,1,.46-.46h8.86a.46.46,0,0,1,.46.46A.46.46,0,0,1,263.86,95.65Z" fill="#d1d3d4"></path>
    <path d="M305.94,95.65H287a.46.46,0,0,1-.46-.46.46.46,0,0,1,.46-.46h18.94a.46.46,0,0,1,.46.46A.46.46,0,0,1,305.94,95.65Z" fill="#d1d3d4"></path>
  </g>
</svg>
